<svg xmlns:dc="http://purl.org/dc/elements/1.1/" xmlns:cc="http://creativecommons.org/ns#" xmlns:rdf="http://www.w3.org/1999/02/22-rdf-syntax-ns#" xmlns:svg="http://www.w3.org/2000/svg" xmlns="http://www.w3.org/2000/svg" xmlns:sodipodi="http://sodipodi.sourceforge.net/DTD/sodipodi-0.dtd" xmlns:inkscape="http://www.inkscape.org/namespaces/inkscape" version="1.1" x="0px" y="0px" viewBox="0 0 100 100"><g transform="translate(0,-952.36218)"><path style="text-indent:0;text-transform:none;direction:ltr;block-progression:tb;baseline-shift:baseline;color:#000000;enable-background:accumulate;" d="m 50,971.36216 c -17.0971,0 -31,13.90294 -31,31.00004 0,17.0969 13.9029,31 31,31 17.0971,0 31,-13.9031 31,-31 0,-17.0971 -13.9029,-31.00004 -31,-31.00004 z m 0,4 c 14.9353,0 27,12.06472 27,27.00004 0,14.9351 -12.0647,27 -27,27 -14.9353,0 -27,-12.0649 -27,-27 0,-14.93532 12.0647,-27.00004 27,-27.00004 z m 0,6 c -1.1046,0 -2,0.8954 -2,2 l 0,19.00004 c 0,0.5523 0.2317,1.0443 0.5937,1.4062 l 12,12.0313 c 0.7812,0.7811 2.0627,0.781 2.8438,0 0.781,-0.7811 0.781,-2.0628 0,-2.8438 L 52,1001.5497 52,983.36216 c 0,-1.1046 -0.8954,-2 -2,-2 z" fill="#000000" fill-opacity="1" stroke="none" marker="none" visibility="visible" display="inline" overflow="visible"/></g></svg>